# xmcd
#
# Track frame offsets:
#	150
#	10925
#	26455
#	45348
#	57348
#	71148
#	87125
#	104223
#	117200
#	131900
#	149300
#	161375
#	181175
#	193100
#	215748
#
# Disc length: 3081 seconds
#
# Revision: 7
# Processed by: cddbd v1.5PL3 Copyright (c) Steve Scherf et al.
# Submitted via: dBpowerAMP V4.0
#
DISCID=d80c070f
DTITLE=JamesGalway,flute&TheGalwayPopsOrchestra,condVincentFanuele - TheWindBeneathMyWings;RCA60862-2-RC
DYEAR=2002
DGENRE=Instrumental
TTITLE0=ElCondorPasa{IfICould}(PaulSimon;2002,JamesGalway,flute&TheGalwayPopsOrchestra,condVincentFanuele)
TTITLE1=UnchainedMelody(AlexNorth,HyZaret;2002,JamesGalway,flute&TheGalwayPopsOrchestra,condVincentFanuele)
TTITLE2=FromADistance(JulieGold;2002,JamesGalway,flute&TheGalwayPopsOrchestra,condVincentFanuele)
TTITLE3=LaVieEnRose(Louiguy,EdithPiaf,MackDavid;2002,JamesGalway,flute&TheGalwayPopsOrchestra,condVincentFanuele)
TTITLE4=ComeToMyGarden(LucySimon,MarshaNorman;2002,JamesGalway,flute&TheGalwayPopsOrchestra,condVincentFanuele)
TTITLE5=Memory(AndrewLloydWebber,TSEliot,TrevorHunn;2002,JamesGalway,flute&TheGalwayPopsOrchestra,condVincentFanuele)
TTITLE6=SmokeGetsInYourEyes(JeromeKern,OttoHarbach;2002,JamesGalway,flute&TheGalwayPopsOrchestra,condVincentFanuele)
TTITLE7=WindmillsOfYourMind,The(MichelLegrand,Marilyn&AlanBergman;2002,JamesGalway,flute&TheGalwayPopsOrchestra,condVincentFanuele)
TTITLE8=PerhapsLove(JohnDenver;2002,JamesGalway,flute&TheGalwayPopsOrchestra,condVincentFanuele)
TTITLE9=Basque(EltonJohn,England;2002,JamesGalway,flute&TheGalwayPopsOrchestra,condVincentFanuele)
TTITLE10=Ceremony,The(Claude-MichelSchonberg,AlainBoublil;2002,JamesGalway,flute&TheGalwayPopsOrchestra,condVincentFanuele)
TTITLE11=SendInTheClowns(StephenSondheim;2002,JamesGalway,flute&TheGalwayPopsOrchestra,condVincentFanuele)
TTITLE12=AngelOfMusic(AndrewLloydWebber,CharlesHart;2002,JamesGalway,flute&TheGalwayPopsOrchestra,condVincentFanuele)
TTITLE13=IrishMedley{TheIsleOfInnisfree~I'llTakeYouHomeAgainKathleen~TheRoseOfTralee}(2002,JamesGalway,flute&TheGalwayPopsOrchestra,condVincentFanuele)
TTITLE14=WindBeneathMyWings(LarryHenley,JefrreySilbar;2002,JamesGalway,flute&TheGalwayPopsOrchestra,condVincentFanuele)
EXTD=more info
EXTT0=
EXTT1=
EXTT2=
EXTT3=
EXTT4=
EXTT5=
EXTT6=
EXTT7=
EXTT8=
EXTT9=
EXTT10=
EXTT11=
EXTT12=
EXTT13=
EXTT14=
PLAYORDER=
